<svg width="198" height="58" viewBox="0 0 198 58" fill="none" xmlns="http://www.w3.org/2000/svg">
<path d="M83.8994 41.9565C81.9487 41.9565 80.2261 41.6272 78.7314 40.9685C77.2367 40.2845 76.0587 39.3218 75.1974 38.0805C74.3361 36.8138 73.8927 35.2812 73.8674 33.4825H78.9974C79.0481 34.7238 79.4914 35.7752 80.3274 36.6365C81.1887 37.4725 82.3667 37.8905 83.8614 37.8905C85.1534 37.8905 86.1794 37.5865 86.9394 36.9785C87.6994 36.3452 88.0794 35.5092 88.0794 34.4705C88.0794 33.3812 87.7374 32.5325 87.0534 31.9245C86.3947 31.3165 85.5081 30.8225 84.3934 30.4425C83.2787 30.0625 82.0881 29.6572 80.8214 29.2265C78.7694 28.5172 77.1987 27.6052 76.1094 26.4905C75.0454 25.3758 74.5134 23.8938 74.5134 22.0445C74.4881 20.4738 74.8554 19.1312 75.6154 18.0165C76.4007 16.8765 77.4647 16.0025 78.8074 15.3945C80.1501 14.7612 81.6954 14.4445 83.4434 14.4445C85.2167 14.4445 86.7747 14.7612 88.1174 15.3945C89.4854 16.0278 90.5494 16.9145 91.3094 18.0545C92.0947 19.1945 92.5127 20.5498 92.5634 22.1205H87.3574C87.3321 21.1832 86.9647 20.3598 86.2554 19.6505C85.5714 18.9158 84.6087 18.5485 83.3674 18.5485C82.3034 18.5232 81.4041 18.7892 80.6694 19.3465C79.9601 19.8785 79.6054 20.6638 79.6054 21.7025C79.6054 22.5892 79.8841 23.2985 80.4414 23.8305C80.9987 24.3372 81.7587 24.7678 82.7214 25.1225C83.6841 25.4772 84.7861 25.8572 86.0274 26.2625C87.3447 26.7185 88.5481 27.2505 89.6374 27.8585C90.7267 28.4665 91.6007 29.2772 92.2594 30.2905C92.9181 31.2785 93.2474 32.5578 93.2474 34.1285C93.2474 35.5218 92.8927 36.8138 92.1834 38.0045C91.4741 39.1952 90.4227 40.1578 89.0294 40.8925C87.6361 41.6018 85.9261 41.9565 83.8994 41.9565ZM97.4912 41.5005V14.9005H114.667V18.8145H102.355V26.2625H112.311V30.1005H102.355V41.5005H97.4912Z" fill="#EF5DA8"/>
<path d="M118.307 41.5005V14.1405H123.171V41.5005H118.307ZM130.763 19.7265C129.876 19.7265 129.142 19.4605 128.559 18.9285C128.002 18.3965 127.723 17.7252 127.723 16.9145C127.723 16.1038 128.002 15.4452 128.559 14.9385C129.142 14.4065 129.876 14.1405 130.763 14.1405C131.65 14.1405 132.372 14.4065 132.929 14.9385C133.512 15.4452 133.803 16.1038 133.803 16.9145C133.803 17.7252 133.512 18.3965 132.929 18.9285C132.372 19.4605 131.65 19.7265 130.763 19.7265ZM128.331 41.5005V22.6525H133.195V41.5005H128.331ZM146.252 35.8765C145.34 35.8765 144.491 35.7752 143.706 35.5725L142.3 36.9785C142.73 37.2065 143.313 37.3965 144.048 37.5485C144.782 37.7005 145.973 37.8525 147.62 38.0045C150.128 38.2325 151.952 38.8278 153.092 39.7905C154.232 40.7532 154.802 42.0832 154.802 43.7805C154.802 44.8952 154.498 45.9465 153.89 46.9345C153.282 47.9478 152.344 48.7585 151.078 49.3665C149.811 49.9998 148.19 50.3165 146.214 50.3165C143.528 50.3165 141.362 49.8098 139.716 48.7965C138.069 47.8085 137.246 46.3138 137.246 44.3125C137.246 42.6152 138.069 41.1458 139.716 39.9045C139.209 39.6765 138.766 39.4358 138.386 39.1825C138.031 38.9292 137.714 38.6632 137.436 38.3845V37.5105L140.742 34.0145C139.272 32.7225 138.538 31.0632 138.538 29.0365C138.538 27.7698 138.842 26.6172 139.45 25.5785C140.083 24.5398 140.97 23.7165 142.11 23.1085C143.25 22.5005 144.63 22.1965 146.252 22.1965C147.316 22.1965 148.304 22.3485 149.216 22.6525H156.36V25.6165L153.13 25.8445C153.636 26.8072 153.89 27.8712 153.89 29.0365C153.89 30.3032 153.586 31.4558 152.978 32.4945C152.37 33.5332 151.483 34.3565 150.318 34.9645C149.178 35.5725 147.822 35.8765 146.252 35.8765ZM146.252 32.1525C147.24 32.1525 148.05 31.8865 148.684 31.3545C149.342 30.8225 149.672 30.0625 149.672 29.0745C149.672 28.0865 149.342 27.3265 148.684 26.7945C148.05 26.2625 147.24 25.9965 146.252 25.9965C145.213 25.9965 144.377 26.2625 143.744 26.7945C143.11 27.3265 142.794 28.0865 142.794 29.0745C142.794 30.0625 143.11 30.8225 143.744 31.3545C144.377 31.8865 145.213 32.1525 146.252 32.1525ZM141.692 43.8185C141.692 44.7558 142.122 45.4525 142.984 45.9085C143.87 46.3898 144.947 46.6305 146.214 46.6305C147.43 46.6305 148.418 46.3772 149.178 45.8705C149.938 45.3892 150.318 44.7305 150.318 43.8945C150.318 43.2105 150.064 42.6405 149.558 42.1845C149.076 41.7285 148.101 41.4498 146.632 41.3485C145.593 41.2725 144.63 41.1585 143.744 41.0065C143.009 41.4118 142.477 41.8552 142.148 42.3365C141.844 42.8178 141.692 43.3118 141.692 43.8185ZM159.907 41.5005V14.1405H164.771V25.5405C165.404 24.5018 166.253 23.6912 167.317 23.1085C168.406 22.5005 169.647 22.1965 171.041 22.1965C173.371 22.1965 175.17 22.9312 176.437 24.4005C177.729 25.8698 178.375 28.0232 178.375 30.8605V41.5005H173.549V31.3165C173.549 29.6952 173.219 28.4538 172.561 27.5925C171.927 26.7312 170.914 26.3005 169.521 26.3005C168.153 26.3005 167.013 26.7818 166.101 27.7445C165.214 28.7072 164.771 30.0498 164.771 31.7725V41.5005H159.907ZM191.424 41.5005C189.448 41.5005 187.864 41.0192 186.674 40.0565C185.483 39.0938 184.888 37.3838 184.888 34.9265V26.7185H181.658V22.6525H184.888L185.458 17.5985H189.752V22.6525H194.844V26.7185H189.752V34.9645C189.752 35.8765 189.942 36.5098 190.322 36.8645C190.727 37.1938 191.411 37.3585 192.374 37.3585H194.73V41.5005H191.424Z" fill="#F7F7FB"/>
<mask id="mask0_1702_161" style="mask-type:alpha" maskUnits="userSpaceOnUse" x="0" y="0" width="58" height="58">
<circle cx="29.3574" cy="29" r="28.5918" fill="#C4C4C4"/>
</mask>
<g mask="url(#mask0_1702_161)">
<circle cx="15.7553" cy="-4.66944" r="23.7214" transform="rotate(-22 15.7553 -4.66944)" fill="#4CBFFF"/>
<circle cx="42.9623" cy="62.6685" r="23.7214" transform="rotate(-22 42.9623 62.6685)" fill="#4CBFFF"/>
<circle cx="-4.31014" cy="42.603" r="23.7214" transform="rotate(-22 -4.31014 42.603)" fill="#EF5DA8"/>
<circle cx="62.4037" cy="13.8545" r="23.7214" transform="rotate(-22 62.4037 13.8545)" fill="#EF5DA8"/>
</g>
</svg>
